<?xml version="1.0" encoding="UTF-8" standalone="no"?>
<!-- Generator: Adobe Illustrator 19.0.0, SVG Export Plug-In . SVG Version: 6.00 Build 0)  -->

<svg
   xmlns:dc="http://purl.org/dc/elements/1.1/"
   xmlns:cc="http://creativecommons.org/ns#"
   xmlns:rdf="http://www.w3.org/1999/02/22-rdf-syntax-ns#"
   xmlns:svg="http://www.w3.org/2000/svg"
   xmlns="http://www.w3.org/2000/svg"
   xmlns:sodipodi="http://sodipodi.sourceforge.net/DTD/sodipodi-0.dtd"
   xmlns:inkscape="http://www.inkscape.org/namespaces/inkscape"
   version="1.1"
   id="Capa_1"
   x="0px"
   y="0px"
   viewBox="0 0 511.999 511.999"
   style="enable-background:new 0 0 511.999 511.999;"
   xml:space="preserve"
   sodipodi:docname="mushroom.svg"
   inkscape:version="0.92.5 (2060ec1f9f, 2020-04-08)"
   inkscape:export-filename="/home/biranjan/Downloads/icons/mushroom.png"
   inkscape:export-xdpi="98.333534"
   inkscape:export-ydpi="98.333534"><metadata
   id="metadata101"><rdf:RDF><cc:Work
       rdf:about=""><dc:format>image/svg+xml</dc:format><dc:type
         rdf:resource="http://purl.org/dc/dcmitype/StillImage" /><dc:title></dc:title></cc:Work></rdf:RDF></metadata><defs
   id="defs99" /><sodipodi:namedview
   pagecolor="#ffffff"
   bordercolor="#666666"
   borderopacity="1"
   objecttolerance="10"
   gridtolerance="10"
   guidetolerance="10"
   inkscape:pageopacity="0"
   inkscape:pageshadow="2"
   inkscape:window-width="1920"
   inkscape:window-height="1016"
   id="namedview97"
   showgrid="false"
   inkscape:zoom="0.65186535"
   inkscape:cx="111.47514"
   inkscape:cy="249.64522"
   inkscape:window-x="0"
   inkscape:window-y="27"
   inkscape:window-maximized="1"
   inkscape:current-layer="Capa_1" />






























<g
   id="g66"
   transform="matrix(1,-0.0030878,0,1,-750.64259,-152.83254)"
   inkscape:export-xdpi="96"
   inkscape:export-ydpi="96">
</g>
<g
   id="g68"
   transform="matrix(1,-0.0030878,0,1,-750.64259,-152.83254)"
   inkscape:export-xdpi="96"
   inkscape:export-ydpi="96">
</g>
<g
   id="g70"
   transform="matrix(1,-0.0030878,0,1,-750.64259,-152.83254)"
   inkscape:export-xdpi="96"
   inkscape:export-ydpi="96">
</g>
<g
   id="g72"
   transform="matrix(1,-0.0030878,0,1,-750.64259,-152.83254)"
   inkscape:export-xdpi="96"
   inkscape:export-ydpi="96">
</g>
<g
   id="g74"
   transform="matrix(1,-0.0030878,0,1,-750.64259,-152.83254)"
   inkscape:export-xdpi="96"
   inkscape:export-ydpi="96">
</g>
<g
   id="g76"
   transform="matrix(1,-0.0030878,0,1,-750.64259,-152.83254)"
   inkscape:export-xdpi="96"
   inkscape:export-ydpi="96">
</g>
<g
   id="g78"
   transform="matrix(1,-0.0030878,0,1,-750.64259,-152.83254)"
   inkscape:export-xdpi="96"
   inkscape:export-ydpi="96">
</g>
<g
   id="g80"
   transform="matrix(1,-0.0030878,0,1,-750.64259,-152.83254)"
   inkscape:export-xdpi="96"
   inkscape:export-ydpi="96">
</g>
<g
   id="g82"
   transform="matrix(1,-0.0030878,0,1,-750.64259,-152.83254)"
   inkscape:export-xdpi="96"
   inkscape:export-ydpi="96">
</g>
<g
   id="g84"
   transform="matrix(1,-0.0030878,0,1,-750.64259,-152.83254)"
   inkscape:export-xdpi="96"
   inkscape:export-ydpi="96">
</g>
<g
   id="g86"
   transform="matrix(1,-0.0030878,0,1,-750.64259,-152.83254)"
   inkscape:export-xdpi="96"
   inkscape:export-ydpi="96">
</g>
<g
   id="g88"
   transform="matrix(1,-0.0030878,0,1,-750.64259,-152.83254)"
   inkscape:export-xdpi="96"
   inkscape:export-ydpi="96">
</g>
<g
   id="g90"
   transform="matrix(1,-0.0030878,0,1,-750.64259,-152.83254)"
   inkscape:export-xdpi="96"
   inkscape:export-ydpi="96">
</g>
<g
   id="g92"
   transform="matrix(1,-0.0030878,0,1,-750.64259,-152.83254)"
   inkscape:export-xdpi="96"
   inkscape:export-ydpi="96">
</g>
<g
   id="g94"
   transform="matrix(1,-0.0030878,0,1,-750.64259,-152.83254)"
   inkscape:export-xdpi="96"
   inkscape:export-ydpi="96">
</g>
<rect
   style="opacity:1;fill:#dc1468;fill-opacity:1;stroke:none;stroke-width:14.25693989;stroke-miterlimit:4;stroke-dasharray:none;stroke-opacity:1"
   id="rect908"
   width="1096.1943"
   height="488.13461"
   x="-52.661602"
   y="26.584431"
   transform="matrix(0.99999119,-0.00419833,0,1,0,0)"
   inkscape:export-xdpi="96"
   inkscape:export-ydpi="96" /><g
   inkscape:groupmode="layer"
   id="layer1"
   inkscape:label="mushroom"><g
     id="g942"
     transform="matrix(0.88571433,0,0,0.94936709,945.95845,97.597746)"><path
       inkscape:connector-curvature="0"
       id="path2"
       d="m -164.56759,360.59243 c 0.951,-0.79 17.402,-23.828 50.088,-26.951 -6.369,-31.084 -12.869,-80.594 -12.869,-145.067 h -24.015 -0.963 -24.015 c 0,63.756 -6.357,112.924 -12.657,144.025 9.74,7.618 18.065,17.074 24.431,27.993 z"
       style="fill:#f2d59f" /><path
       inkscape:connector-curvature="0"
       id="path4"
       d="m -163.81359,359.70243 c 6.232,-37.279 12.452,-95.656 12.452,-171.129 h -0.002 -0.963 -24.015 c 0,63.756 -6.357,112.924 -12.657,144.024 9.74,7.62 18.067,17.076 24.431,27.994 0.088,-0.102 0.668,-0.787 0.754,-0.889 z"
       style="fill:#edbf77" /><path
       inkscape:connector-curvature="0"
       id="path6"
       d="m -275.93559,188.57243 c -19.19,0 -25.42,-10.638 -21.53,-23.977 0.274,-0.674 5.588,-22.034 23.233,-46.775 -16.327,0 -35.843,0 -64.514,0 0,127.144 -19.164,207.293 -28.26,236.754 11.014,0.328 21.264,4.237 29.449,10.789 -10e-4,0.001 -10e-4,0.003 -0.002,0.004 15.914,-30.253 46.41,-50.282 81.105,-52.501 -6.09,-28.915 -11.395,-72.266 -14.57,-124.294 z"
       style="fill:#f2d59f" /><path
       inkscape:connector-curvature="0"
       id="path8"
       d="m -313.48559,117.82043 h -25.261 c 0,127.144 -19.164,207.293 -28.26,236.754 9.75,0.291 18.898,3.391 26.548,8.643 9.496,-34.291 26.973,-117.219 26.973,-245.397 z"
       style="fill:#edbf77" /><path
       inkscape:connector-curvature="0"
       id="path10"
       d="m -114.80059,85.62043 c -24.126,-83.62 -101.215,-144.78 -192.603,-144.78 -90.252,0 -167.868,59.886 -192.534,144.548 -0.98,3.412 -8.246,32.432 28.338,32.432 h 330.726 c 33.597,0 26.507,-30.454 26.073,-32.2 z"
       style="fill:#e83d3d" /><path
       inkscape:connector-curvature="0"
       id="path12"
       d="m -474.93859,85.38843 c 0.032,-0.11 0.066,-0.219 0.099,-0.33 l 0.002,-0.005 c 23.191,-79.491 94.279,-138.555 179.932,-143.827 -95.366,-5.866 -179.368,55.66 -205.032,144.162 -0.98,3.412 -8.246,32.432 28.338,32.432 h 24.999 c -36.584,0 -29.318,-29.02 -28.338,-32.432 z"
       style="fill:#bc3535" /><path
       inkscape:connector-curvature="0"
       id="path14"
       d="m -379.39959,15.42443 c 36.931,0 57.685,-41.896 36.526,-71.266 -29.721,5.447 -57.16,17.414 -80.784,34.362 3.814,20.986 22.171,36.904 44.258,36.904 z"
       style="fill:#efefef" /><path
       inkscape:connector-curvature="0"
       id="path16"
       d="m -342.87359,-55.84157 c -29.721,5.447 -57.16,17.414 -80.784,34.362 0.989,5.442 2.964,10.539 5.72,15.11 22.075,-20.278 48.71,-35.667 78.192,-44.455 -0.937,-1.743 -1.978,-3.421 -3.128,-5.017 z"
       style="fill:#dddddd" /><circle
       id="circle18"
       r="22.375999"
       cy="12.804432"
       cx="-277.09961"
       style="fill:#efefef" /><path
       inkscape:connector-curvature="0"
       id="path20"
       d="m -278.83059,12.80143 c 0,-8.633 4.892,-16.119 12.052,-19.85 -3.09,-1.61 -6.599,-2.526 -10.325,-2.526 -12.358,0 -22.376,10.018 -22.376,22.376 0,12.358 10.018,22.376 22.376,22.376 3.725,0 7.235,-0.916 10.325,-2.526 -7.16,-3.731 -12.052,-11.217 -12.052,-19.85 z"
       style="fill:#dddddd" /><circle
       id="circle22"
       r="15.347"
       cy="69.992432"
       cx="-351.65759"
       style="fill:#efefef" /><path
       inkscape:connector-curvature="0"
       id="path24"
       d="m -4.90759,165.02343 c -18.395,-63.752 -77.168,-110.382 -146.843,-110.382 -68.809,0 -127.985,45.658 -146.79,110.205 -0.747,2.601 -6.287,24.726 21.605,24.726 h 252.15 c 25.614,0 20.209,-23.217 19.878,-24.549 z"
       style="fill:#e83d3d" /><path
       inkscape:connector-curvature="0"
       id="path26"
       d="m -273.37859,164.59543 10e-4,-0.004 c 17.409,-59.669 70.216,-104.242 134.169,-109.439 -71.794,-5.833 -138.614,39.028 -159.332,109.694 -0.747,2.601 -6.287,24.726 21.605,24.726 h 25.086 c -19.309,0 -25.502,-11.445 -21.529,-24.977 z"
       style="fill:#bc3535" /><path
       inkscape:connector-curvature="0"
       id="path28"
       d="m -14.70559,139.79143 c -13.416,-27.117 -34.64,-49.68 -60.735,-64.751 -34.559,25.514 -16.604,80.692 26.522,80.692 13.732,-0.002 26.012,-6.199 34.213,-15.941 z"
       style="fill:#efefef" /><path
       inkscape:connector-curvature="0"
       id="path30"
       d="m -62.53659,83.40943 c -4.154,-2.993 -8.453,-5.799 -12.905,-8.371 -30.564,22.565 -20.78,70.612 16.063,79.449 -11.628,-8.072 -25.803,-52.186 -3.158,-71.078 z"
       style="fill:#dddddd" /><circle
       id="circle32"
       r="15.04"
       cy="93.332428"
       cx="-141.80258"
       style="fill:#efefef" /><g
       transform="translate(-508.64259,-88.37257)"
       id="g38">
	<path
   inkscape:connector-curvature="0"
   id="path34"
   d="m 156.983,158.36 c 0,-5.677 3.091,-10.622 7.674,-13.277 -2.259,-1.309 -4.875,-2.07 -7.674,-2.07 -8.476,0 -15.347,6.871 -15.347,15.347 0,8.476 6.871,15.347 15.347,15.347 2.799,0 5.414,-0.761 7.674,-2.07 -4.583,-2.654 -7.674,-7.599 -7.674,-13.277 z"
   style="fill:#dddddd" />
	<path
   inkscape:connector-curvature="0"
   id="path36"
   d="m 374.514,168.785 c -9.951,-5.922 -22.716,1.219 -22.716,12.923 0,11.679 12.741,18.86 22.716,12.923 -9.818,-5.845 -9.823,-19.999 0,-25.846 z"
   style="fill:#dddddd" />
</g><circle
       id="circle40"
       r="23.009001"
       cy="138.43143"
       cx="-212.01157"
       style="fill:#efefef" /><path
       inkscape:connector-curvature="0"
       id="path42"
       d="m -200.50359,118.50743 c -15.203,-8.798 -34.514,2.135 -34.514,19.923 0,17.786 19.312,28.721 34.514,19.923 -15.332,-8.873 -15.324,-30.978 0,-39.846 z"
       style="fill:#dddddd" /><path
       inkscape:connector-curvature="0"
       id="path44"
       d="m -415.67559,386.99543 c 14.616,-45.843 79.715,-45.838 94.33,-10e-4 1.171,3.671 -1.564,7.448 -5.442,7.448 h -83.447 c -3.859,0 -6.616,-3.761 -5.441,-7.447 z"
       style="fill:#897067" /><path
       inkscape:connector-curvature="0"
       id="path46"
       d="m -390.97859,386.99543 c 5.282,-16.566 18.568,-28.754 34.816,-32.901 -25.341,-6.469 -51.462,7.647 -59.513,32.901 -1.172,3.678 1.574,7.447 5.443,7.447 h 24.697 c -3.861,0 -6.618,-3.76 -5.443,-7.447 z"
       style="fill:#7c6359" /><path
       inkscape:connector-curvature="0"
       id="path48"
       d="m -344.34659,379.54943 c 13.141,-41.216 51.049,-68.907 94.33,-68.907 43.28,0 81.189,27.691 94.33,68.906 2.342,7.341 -3.127,14.895 -10.884,14.895 h -166.892 c -7.72,-10e-4 -13.233,-7.523 -10.884,-14.894 z"
       style="fill:#6d5248" /><path
       inkscape:connector-curvature="0"
       id="path50"
       d="m -318.79759,379.54943 c 11.83,-37.103 43.732,-63.233 81.555,-68.081 -47.775,-6.124 -92.528,22.364 -107.104,68.081 -2.344,7.355 3.147,14.894 10.885,14.894 h 25.549 c -7.72,-10e-4 -13.235,-7.522 -10.885,-14.894 z"
       style="fill:#543f35" /><path
       inkscape:connector-curvature="0"
       id="path52"
       d="m -177.34059,383.39743 c 9.747,-30.569 37.862,-51.107 69.962,-51.107 32.1,0 60.216,20.537 69.962,51.107 1.737,5.445 -2.319,11.048 -8.072,11.048 h -123.78 c -5.726,-0.003 -9.815,-5.582 -8.072,-11.048 z"
       style="fill:#897067" /><path
       inkscape:connector-curvature="0"
       id="path54"
       d="m -152.34159,383.39743 c 8.457,-26.523 30.744,-45.485 57.463,-50.042 -36.183,-6.172 -71.252,14.884 -82.462,50.042 -1.738,5.455 2.334,11.047 8.073,11.047 h 24.999 c -5.726,-0.002 -9.816,-5.581 -8.073,-11.047 z"
       style="fill:#7c6359" /><path
       inkscape:connector-curvature="0"
       id="path56"
       d="m -306.97859,12.80043 c 0,16.474 13.402,29.876 29.876,29.876 16.474,0 29.876,-13.403 29.876,-29.876 0,-16.473 -13.402,-29.875 -29.876,-29.875 -16.474,0 -29.876,13.401 -29.876,29.875 z m 44.753,0 c 0,8.203 -6.674,14.877 -14.877,14.877 -8.203,0 -14.877,-6.674 -14.877,-14.877 0,-8.203 6.674,-14.876 14.877,-14.876 8.203,0 14.877,6.673 14.877,14.876 z" /><path
       inkscape:connector-curvature="0"
       id="path58"
       d="m -374.50559,69.98743 c 0,12.598 10.249,22.846 22.846,22.846 12.599,0 22.847,-10.249 22.847,-22.846 0,-12.597 -10.249,-22.846 -22.847,-22.846 -12.598,0 -22.846,10.249 -22.846,22.846 z m 30.693,0 c 0,4.327 -3.521,7.847 -7.848,7.847 -4.327,0 -7.847,-3.52 -7.847,-7.847 0,-4.327 3.52,-7.847 7.847,-7.847 4.327,0 7.848,3.521 7.848,7.847 z" /><path
       inkscape:connector-curvature="0"
       id="path60"
       d="m -141.80159,70.79043 c -12.431,0 -22.542,10.113 -22.542,22.543 0,12.431 10.112,22.542 22.542,22.542 12.43,0 22.543,-10.113 22.543,-22.542 0,-12.429 -10.114,-22.543 -22.543,-22.543 z m 0,30.088 c -4.159,0 -7.543,-3.384 -7.543,-7.543 0,-4.159 3.384,-7.544 7.543,-7.544 4.16,0 7.544,3.384 7.544,7.544 -0.001,4.16 -3.385,7.543 -7.544,7.543 z" /><path
       inkscape:connector-curvature="0"
       id="path62"
       d="m -242.51759,138.43043 c 0,16.823 13.687,30.508 30.509,30.508 16.822,0 30.509,-13.686 30.509,-30.508 0,-16.822 -13.687,-30.509 -30.509,-30.509 -16.822,0 -30.509,13.686 -30.509,30.509 z m 46.018,0 c 0,8.552 -6.958,15.51 -15.51,15.51 -8.552,0 -15.51,-6.958 -15.51,-15.51 0,-8.552 6.958,-15.51 15.51,-15.51 8.552,0 15.51,6.958 15.51,15.51 z" /><path
       inkscape:connector-curvature="0"
       id="path64"
       d="m 2.29841,162.94443 c -16.519,-57.252 -63.737,-100.386 -120.753,-112.364 -16.842,-34.403 -42.743,-63.476 -75.107,-84.247 -3.487,-2.238 -8.127,-1.225 -10.362,2.261 -2.237,3.486 -1.226,8.125 2.261,10.363 27.074,17.376 49.277,41.004 64.844,68.871 -57.653,-5.269 -110.649,20.107 -143.218,63.492 -5.156,0 -182.183,0 -191.395,0 -9.696,0 -16.266,-2.194 -19.525,-6.522 -3.374,-4.479 -3.153,-11.437 -1.651,-16.907 11.061,-37.844 34.022,-72.06 64.902,-96.885 8.078,19.021 26.886,31.916 48.307,31.916 37.668,0 62.982,-38.645 48.321,-73.027 33.012,-4.168 67.3,-0.099 99.539,13.378 3.82,1.597 8.215,-0.205 9.813,-4.027 1.598,-3.822 -0.206,-8.215 -4.027,-9.813 -65.755,-27.484 -145.201,-20.583 -207.077,26.529 -35.437,26.981 -61.788,65.267 -74.2,107.805 -0.008,0.027 -0.016,0.055 -0.023,0.082 v 0 l -0.086,0.286 c -0.837,2.915 -4.568,18.047 4.201,29.688 6.246,8.292 16.847,12.497 31.506,12.497 h 125.158 c -0.283,46.88 -3.214,91.209 -8.734,131.865 -0.558,4.104 2.318,7.884 6.423,8.44 4.094,0.563 7.884,-2.316 8.44,-6.423 5.61,-41.319 8.593,-86.324 8.876,-133.883 h 41.234 c -6.83,11.608 -11.845,23.485 -15.714,36.454 -4.954,17.225 3.306,32.851 26.689,34.259 2.615,38.678 7.184,74.679 13.604,107.228 -31.121,4.453 -58.098,22.169 -74.562,48.36 -5.367,-3.1 -11.18,-5.279 -17.275,-6.48 3.359,-11.912 7.535,-28.792 11.536,-50.596 0.747,-4.074 -1.949,-7.982 -6.023,-8.73 -4.078,-0.747 -7.982,1.949 -8.73,6.023 -4.274,23.294 -8.729,40.732 -12.116,52.357 -23.18,1.647 -43.051,17.108 -50.196,39.522 -2.713,8.504 3.65,17.225 12.588,17.225 17.388,0 351.775,0 364.746,0 10.795,0 18.502,-10.535 15.218,-20.824 -10.767,-33.772 -42.043,-56.749 -78.11,-56.308 -5.272,-27.643 -10.971,-70.474 -11.435,-127.738 h 26.19 c 4.143,0 7.5,-3.357 7.5,-7.5 0,-4.143 -3.357,-7.5 -7.5,-7.5 -19.208,0 -165.203,0 -183.31,0 -4.463,0 -10.684,-0.676 -13.355,-4.223 -3.128,-4.155 -0.94,-11.32 -0.956,-11.22 25.318,-86.624 123.199,-128.903 203.037,-89.926 -8.21,9.431 -12.915,21.635 -12.915,34.319 0,43.38 49.928,67.497 83.912,41.472 1.94,4.723 3.634,9.547 5.056,14.454 0.503,2.142 1.145,8.03 -1.527,11.448 -4.607,5.895 -16.003,2.844 -44.941,3.676 -4.143,0 -7.5,3.357 -7.5,7.5 0,4.143 3.357,7.5 7.5,7.5 h 33.84 c 10.313,0 18.023,-3.175 22.918,-9.437 5.389,-6.894 6.277,-17.253 4.164,-24.69 z m -381.698,-155.02 c -16.548,0 -30.911,-10.771 -35.757,-26.195 20.935,-14.231 44.002,-24.043 68.697,-29.224 13.464,24.622 -4.318,55.419 -32.94,55.419 z m 115.379,189.148 h 80.145 c -0.433,53.48 -5.436,94.342 -10.35,121.868 -16.336,-10.024 -35.682,-15.864 -56.154,-15.792 -6.427,-32.102 -11.008,-67.716 -13.641,-106.076 z m -143.692,189.87 c 9.479,-24.705 38.65,-33.982 60.593,-21.081 -4.196,9.351 -6.155,14.929 -4.848,21.081 z m 71.083,-1.609 c -0.736,-1.008 -0.949,-2.32 -0.57,-3.51 l -10e-4,0.002 c 23.499,-73.707 121.712,-86.325 163.56,-22.633 -4.492,6.408 -12.035,20.174 -11.564,27.75 -155.304,-0.62 -149.18,1.461 -151.425,-1.609 z m 292.068,0.341 c 0.198,0.621 -0.263,1.268 -0.927,1.268 -132.21,-0.158 -124.009,0.364 -124.565,-0.398 -0.33,-0.452 -0.281,-0.662 0.797,-3.601 21.551,-58.737 105.716,-56.8 124.695,2.731 z m -90.258,-188.602 c 0.459,57.55 6.133,100.935 11.465,129.291 -15.316,3.049 -29.206,10.425 -40.196,21.02 -4.958,-6.915 -10.72,-13.187 -17.221,-18.742 5.413,-28.068 11.425,-72.285 11.897,-131.569 z m 85.9,-48.841 c -33.612,0 -49.704,-41.138 -25.808,-64.012 21.2,13.264 38.804,32.011 50.874,54.292 -6.818,6.225 -15.718,9.72 -25.066,9.72 z" /></g></g><flowRoot
   xml:space="preserve"
   id="flowRoot1016"
   style="font-style:normal;font-weight:normal;font-size:40px;line-height:1.25;font-family:sans-serif;letter-spacing:0px;word-spacing:0px;fill:#000000;fill-opacity:1;stroke:none"
   transform="matrix(1.5206825,0,0,1.1757133,10.798768,11.6815)"
   inkscape:export-xdpi="96"
   inkscape:export-ydpi="96"><flowRegion
     id="flowRegion1018"><rect
       id="rect1020"
       width="434.13873"
       height="165.67839"
       x="16.874651"
       y="172.97192" /></flowRegion><flowPara
     id="flowPara1022"
     style="fill:#ffffff">MushroomID</flowPara><flowPara
     id="flowPara1024"><flowSpan
   style="font-size:19.94337901px"
   id="flowSpan1026">Fast and easy mushroom</flowSpan> identification</flowPara></flowRoot><path
   style="fill:none;stroke:#000000;stroke-width:2.79999995;stroke-linecap:butt;stroke-linejoin:miter;stroke-miterlimit:4;stroke-dasharray:none;stroke-opacity:1"
   d="M 6.602178,245.0727 V 208.25528 H 48.021775"
   id="path1036"
   inkscape:connector-curvature="0"
   inkscape:export-xdpi="96"
   inkscape:export-ydpi="96" /><path
   style="fill:none;stroke:#000000;stroke-width:2.79999995;stroke-linecap:butt;stroke-linejoin:miter;stroke-miterlimit:4;stroke-dasharray:none;stroke-opacity:1"
   d="M 37.847124,387.67317 H 1.029704 v -41.4196"
   id="path1036-3"
   inkscape:connector-curvature="0"
   inkscape:export-xdpi="96"
   inkscape:export-ydpi="96" /><path
   style="fill:none;stroke:#000000;stroke-width:2.79999995;stroke-linecap:butt;stroke-linejoin:miter;stroke-miterlimit:4;stroke-dasharray:none;stroke-opacity:1"
   d="m 463.35257,351.69961 v 36.81742 h -41.4196"
   id="path1036-3-6"
   inkscape:connector-curvature="0"
   inkscape:export-xdpi="96"
   inkscape:export-ydpi="96" /><path
   style="fill:none;stroke:#000000;stroke-width:2.79999995;stroke-linecap:butt;stroke-linejoin:miter;stroke-miterlimit:4;stroke-dasharray:none;stroke-opacity:1"
   d="m 424.7,207.91578 h 36.81742 v 41.4196"
   id="path1036-7"
   inkscape:connector-curvature="0"
   inkscape:export-xdpi="96"
   inkscape:export-ydpi="96" /></svg>